<?xml version="1.0" encoding="utf-8"?>
<!-- Generator: Adobe Illustrator 15.0.0, SVG Export Plug-In . SVG Version: 6.00 Build 0)  -->
<!DOCTYPE svg PUBLIC "-//W3C//DTD SVG 1.1//EN" "http://www.w3.org/Graphics/SVG/1.1/DTD/svg11.dtd">
<svg version="1.1"
	 id="svg2737" xmlns:svg="http://www.w3.org/2000/svg" inkscape:output_extension="org.inkscape.output.svg.inkscape" xmlns:dc="http://purl.org/dc/elements/1.1/" xmlns:sodipodi="http://sodipodi.sourceforge.net/DTD/sodipodi-0.dtd" xmlns:rdf="http://www.w3.org/1999/02/22-rdf-syntax-ns#" xmlns:inkscape="http://www.inkscape.org/namespaces/inkscape" xmlns:cc="http://creativecommons.org/ns#" sodipodi:docname="frm_ci1_cpr1.svg" sodipodi:version="0.32" inkscape:version="0.46"
	 xmlns="http://www.w3.org/2000/svg" xmlns:xlink="http://www.w3.org/1999/xlink" x="0px" y="0px" width="600px" height="600px"
	 viewBox="0 0 600 600" enable-background="new 0 0 600 600" xml:space="preserve">
<defs>
	
	
		<inkscape:perspective  id="perspective2745" inkscape:vp_x="0 : 526.18109 : 1" inkscape:vp_y="0 : 1000 : 0" inkscape:vp_z="744.09448 : 526.18109 : 1" sodipodi:type="inkscape:persp3d" inkscape:persp3d-origin="372.04724 : 350.78739 : 1">
		</inkscape:perspective>
</defs>
<sodipodi:namedview  id="base" pagecolor="#ffffff" showgrid="false" bordercolor="#666666" gridtolerance="10000" borderopacity="1.0" objecttolerance="10" guidetolerance="10" inkscape:window-y="67" inkscape:current-layer="layer1" inkscape:window-x="88" inkscape:zoom="0.49497475" inkscape:cx="375" inkscape:cy="223.17855" inkscape:document-units="px" inkscape:pageshadow="2" inkscape:window-height="667" inkscape:window-width="640" inkscape:pageopacity="0.0">
	</sodipodi:namedview>
<g id="layer1" inkscape:label="Layer 1" inkscape:groupmode="layer">
	<g id="g2713" transform="translate(-100.98785,3.0211529)">
		
			<linearGradient id="path2627_1_" gradientUnits="userSpaceOnUse" x1="662.6502" y1="64.6627" x2="1262.6501" y2="64.6627" gradientTransform="matrix(1 0 0 -1 -562.6572 364.6564)">
			<stop  offset="0" style="stop-color:#5C2C00"/>
			<stop  offset="1" style="stop-color:#000000"/>
		</linearGradient>
		<path id="path2627" opacity="0.25" fill="url(#path2627_1_)" enable-background="new    " d="M399.993-0.006
			c-165.651,0-300,134.189-300,299.997c0,165.814,134.349,300.003,300,300.003c165.65,0,300-134.189,300-300.003
			C699.993,134.185,565.642-0.006,399.993-0.006z M556.834,453.836c-39.952,39.953-94.799,62.686-151.334,62.686
			c-0.18,0-0.356-0.006-0.539-0.008c-0.151,0-0.308,0.007-0.462,0.007c-56.535,0-111.379-22.73-151.334-62.688
			c-39.955-39.954-62.685-94.8-62.685-151.336c0-56.533,22.729-111.378,62.685-151.333c0.609-0.607,1.231-1.2,1.85-1.803
			c0.225-0.227,0.439-0.459,0.667-0.685c39.556-39.557,93.851-62.059,149.818-62.059c55.972,0,110.268,22.502,149.821,62.059
			c11.479,11.479,21.51,24.205,29.982,37.847c22.087,34.335,34.215,74.701,34.215,115.977
			C619.518,359.033,596.789,413.879,556.834,453.836z"/>
		
			<linearGradient id="path2634_1_" gradientUnits="userSpaceOnUse" x1="1068.6169" y1="347.0035" x2="850.0322" y2="-236.4632" gradientTransform="matrix(1 0 0 -1 -562.6572 364.6564)">
			<stop  offset="0" style="stop-color:#5C2C00"/>
			<stop  offset="1" style="stop-color:#000000"/>
		</linearGradient>
		<path id="path2634" opacity="0.63" fill="url(#path2634_1_)" enable-background="new    " d="M399.913,7.606
			C238.286,7.606,107.2,138.655,107.2,300.579c0,161.582,131.086,292.636,292.713,292.636
			c161.804,0,292.891-131.054,292.891-292.636C692.801,138.657,561.719,7.608,399.913,7.606z M556.832,453.833
			c-39.951,39.952-94.798,62.685-151.332,62.685c-0.18,0-0.356-0.007-0.539-0.008c-0.151,0-0.308,0.007-0.462,0.007
			c-56.535,0-111.378-22.73-151.333-62.687c-39.955-39.953-62.684-94.799-62.684-151.333c0-56.532,22.729-111.376,62.684-151.331
			c0.609-0.607,1.231-1.2,1.85-1.803c0.225-0.227,0.439-0.459,0.667-0.685c39.555-39.556,93.85-62.058,149.817-62.058
			c55.971,0,110.267,22.502,149.82,62.058c11.479,11.479,21.509,24.205,29.981,37.846c22.087,34.334,34.215,74.7,34.215,115.975
			C619.516,359.031,596.787,413.878,556.832,453.833z"/>
		
			<linearGradient id="path2641_1_" gradientUnits="userSpaceOnUse" x1="959.2352" y1="341.5582" x2="882.2341" y2="-223.4478" gradientTransform="matrix(1 0 0 -1 -520.8574 359.8557)">
			<stop  offset="0" style="stop-color:#5C2C00"/>
			<stop  offset="1" style="stop-color:#000000"/>
		</linearGradient>
		<path id="path2641" fill="url(#path2641_1_)" d="M399.99,14.368c-157.735,0-285.605,127.871-285.605,285.607
			s127.87,285.606,285.605,285.606c157.734,0,285.604-127.869,285.604-285.606C685.595,142.24,557.724,14.368,399.99,14.368z
			 M556.834,453.836c-39.952,39.954-94.799,62.687-151.334,62.687c-0.18,0-0.356-0.006-0.539-0.007
			c-0.151,0-0.308,0.006-0.462,0.006c-56.535,0-111.379-22.73-151.334-62.689c-39.955-39.953-62.685-94.8-62.685-151.336
			c0-56.533,22.729-111.378,62.685-151.334c0.609-0.607,1.231-1.201,1.85-1.803c0.225-0.227,0.439-0.459,0.667-0.685
			c39.556-39.557,93.851-62.06,149.818-62.06c55.972,0,110.268,22.502,149.821,62.06c11.479,11.479,21.51,24.205,29.982,37.847
			c22.087,34.335,34.215,74.701,34.215,115.977C619.518,359.033,596.789,413.88,556.834,453.836z"/>
		
			<linearGradient id="path2672_1_" gradientUnits="userSpaceOnUse" x1="962.7508" y1="345.0504" x2="964.228" y2="-214.6954" gradientTransform="matrix(1 0 0 -1 -562.6572 364.6564)">
			<stop  offset="0" style="stop-color:#BA734D"/>
			<stop  offset="0.0373" style="stop-color:#C67D54"/>
			<stop  offset="0.1172" style="stop-color:#DB8E61"/>
			<stop  offset="0.1697" style="stop-color:#E39466"/>
			<stop  offset="0.4545" style="stop-color:#FFE3D0"/>
			<stop  offset="0.5879" style="stop-color:#FFFFFF"/>
			<stop  offset="0.703" style="stop-color:#A8614D"/>
			<stop  offset="0.8182" style="stop-color:#D67D52"/>
			<stop  offset="0.8307" style="stop-color:#C5714A"/>
			<stop  offset="0.8731" style="stop-color:#8F4D30"/>
			<stop  offset="0.9126" style="stop-color:#65311B"/>
			<stop  offset="0.9482" style="stop-color:#471D0C"/>
			<stop  offset="0.9785" style="stop-color:#351003"/>
			<stop  offset="1" style="stop-color:#2E0C00"/>
		</linearGradient>
		<path id="path2672" fill="url(#path2672_1_)" d="M400.915,19.605c-155.394,0-281.292,126.122-281.292,281.224
			c0,155.438,125.898,281.229,281.292,281.229c155.233,0,281.134-125.793,281.134-281.229
			C682.049,145.73,556.144,19.607,400.915,19.605z M556.833,453.833c-39.952,39.953-94.799,62.685-151.333,62.685
			c-0.18,0-0.356-0.007-0.539-0.008c-0.151,0-0.308,0.007-0.462,0.007c-56.535,0-111.378-22.73-151.333-62.687
			c-39.955-39.953-62.684-94.798-62.684-151.333c0-56.532,22.728-111.376,62.684-151.331c0.609-0.607,1.231-1.2,1.85-1.803
			c0.225-0.227,0.439-0.459,0.667-0.685c39.556-39.556,93.85-62.058,149.817-62.058c55.971,0,110.267,22.502,149.82,62.058
			c11.479,11.479,21.51,24.205,29.981,37.847c22.087,34.334,34.215,74.7,34.215,115.975
			C619.516,359.032,596.787,413.878,556.833,453.833z"/>
		
			<linearGradient id="path2685_1_" gradientUnits="userSpaceOnUse" x1="1072.7263" y1="267.4669" x2="859.7375" y2="-140.5106" gradientTransform="matrix(1 0 0 -1 -562.6572 364.6564)">
			<stop  offset="0.0056" style="stop-color:#A24900"/>
			<stop  offset="0.1576" style="stop-color:#FF975C"/>
			<stop  offset="0.2303" style="stop-color:#FFAA8B"/>
			<stop  offset="0.4848" style="stop-color:#FFF2E7"/>
			<stop  offset="0.8121" style="stop-color:#731800"/>
		</linearGradient>
		<path id="path2685" fill="url(#path2685_1_)" d="M403.495,68.234c-129.015,0-233.424,104.415-233.424,232.881
			c0,129.02,104.409,233.978,233.424,233.978c128.851,0,233.431-104.96,233.431-233.978
			C636.925,172.651,532.344,68.236,403.495,68.234z M556.832,453.833c-39.951,39.953-94.798,62.685-151.332,62.685
			c-0.18,0-0.356-0.007-0.539-0.008c-0.151,0-0.308,0.007-0.462,0.007c-56.535,0-111.377-22.73-151.332-62.687
			c-39.955-39.953-62.684-94.798-62.684-151.333c0-56.532,22.728-111.376,62.684-151.331c0.609-0.607,1.231-1.2,1.849-1.803
			c0.225-0.227,0.439-0.459,0.667-0.685c39.555-39.556,93.85-62.058,149.817-62.058c55.971,0,110.267,22.502,149.819,62.058
			c11.479,11.479,21.51,24.205,29.982,37.847c22.087,34.334,34.214,74.7,34.214,115.975
			C619.515,359.032,596.787,413.878,556.832,453.833z"/>
		
			<linearGradient id="path8222_1_" gradientUnits="userSpaceOnUse" x1="398.3265" y1="203.6402" x2="398.3265" y2="228.3961" gradientTransform="matrix(10.0205 0 0 -10.0207 -3586.8735 2354.9045)">
			<stop  offset="0.4121" style="stop-color:#8B4300"/>
			<stop  offset="0.7753" style="stop-color:#0D0D0D"/>
		</linearGradient>
		<path id="path8222" fill="url(#path8222_1_)" d="M185.38,249.316c6.879,1.152,3.271,21.849,6.254,7.454
			C212.202,158.03,299.727,83.85,404.56,83.85c112.043,0,204.291,84.715,216.204,193.586c0.854,7.854-1.716-13.501,5.828-15.096
			c11.775-2.484,11.396,45.429,11.396,39.009c0-128.924-104.509-233.427-233.435-233.427
			c-128.929,0-233.427,104.508-233.427,233.434C171.128,311.257,174.606,247.524,185.38,249.316L185.38,249.316z"/>
		
			<linearGradient id="path2702_1_" gradientUnits="userSpaceOnUse" x1="750.7156" y1="63.6568" x2="1185.7126" y2="63.6568" gradientTransform="matrix(1 0 0 -1 -562.6572 364.6564)">
			<stop  offset="0.0056" style="stop-color:#B93D00"/>
			<stop  offset="0.303" style="stop-color:#FFD4B9"/>
			<stop  offset="0.4663" style="stop-color:#FFF2E7"/>
			<stop  offset="0.8061" style="stop-color:#8B2500"/>
		</linearGradient>
		<path id="path2702" opacity="0.54" fill="url(#path2702_1_)" enable-background="new    " d="M405.558,83.5
			c-120.057,0-217.5,97.804-217.5,218.011c0,119.701,97.442,216.989,217.5,216.989c120.215,0,217.497-97.288,217.497-216.989
			C623.055,181.302,525.775,83.502,405.558,83.5z M557.561,452.765c-39.952,39.954-94.799,62.684-151.333,62.684
			c-0.183,0-0.359-0.006-0.539-0.006c-0.154,0-0.31,0.006-0.461,0.006c-56.536,0-111.379-22.73-151.335-62.687
			c-39.955-39.954-62.688-94.798-62.688-151.332c0-56.536,22.729-111.379,62.688-151.334
			c39.956-39.956,94.799-62.686,151.335-62.686c0.174,0,0.346,0.006,0.52,0.006c0.16,0,0.32-0.006,0.48-0.006
			c56.534,0,111.381,22.729,151.333,62.687c39.955,39.955,62.687,94.799,62.687,151.335
			C620.248,357.964,597.516,412.81,557.561,452.765z"/>
		
			<ellipse id="ellipse2704" sodipodi:cx="404.72601" sodipodi:cy="302.58099" sodipodi:rx="234.659" sodipodi:ry="234.659" fill="none" stroke="#FFFFFF" stroke-width="4" cx="404.726" cy="302.581" rx="234.659" ry="234.659">
		</ellipse>
	</g>
</g>
<path id="bgColor00" fill="#A3603B" d="M455.835,456.335c-39.953,39.955-94.799,62.684-151.334,62.684
	c-0.182,0-0.358-0.006-0.539-0.006c-0.153,0-0.309,0.006-0.461,0.006c-56.536,0-111.379-22.729-151.335-62.686
	c-39.955-39.955-62.686-94.796-62.686-151.332c0-56.537,22.729-111.379,62.687-151.334c39.956-39.957,94.798-62.686,151.334-62.686
	c0.174,0,0.347,0.006,0.521,0.006c0.16,0,0.319-0.006,0.479-0.006c56.535,0,111.381,22.729,151.334,62.686
	c39.955,39.955,62.686,94.799,62.686,151.335C518.521,361.537,495.791,416.38,455.835,456.335L455.835,456.335z"/>
</svg>
